<?xml version="1.0" encoding="utf-8"?>
<!DOCTYPE svg PUBLIC "-//W3C//DTD SVG 1.1//EN" "http://www.w3.org/Graphics/SVG/1.1/DTD/svg11.dtd">
<svg version="1.1" id="Layer_1" xmlns="http://www.w3.org/2000/svg" xmlns:xlink="http://www.w3.org/1999/xlink" x="0px" y="0px"
	 width="200px" height="200px" viewBox="0 0 200 200" enable-background="new 0 0 200 200" xml:space="preserve">
<g>
	<path d="M63,93.485c0,4.917-2.219,8.508-5.285,8.508c-3.065,0-5.285-3.591-5.285-8.508V75.333h-2.114v18.341
		c0,6.431,3.065,11.913,7.399,11.913c4.334,0,7.399-5.673,7.399-11.913V75.333H63V93.485z M80.335,75.333h-5.708v30.254h5.708
		c4.757,0,8.034-5.861,8.034-15.127C88.369,81.383,85.092,75.333,80.335,75.333z M80.124,101.805h-3.383v-22.69h3.383
		c3.594,0,6.13,4.349,6.13,11.345C86.254,98.023,83.612,101.616,80.124,101.805z M126.421,102.373
		c-3.805,0-6.342-5.105-6.342-11.914c0-6.807,2.644-11.724,6.342-11.724c2.96,0,4.757,3.026,4.757,3.026l0.846-2.647
		c0,0-1.902-3.593-5.813-3.593c-5.074,0-8.246,6.807-8.246,14.938c0,8.322,3.277,15.316,8.456,15.316
		c4.018,0,6.025-4.917,6.025-4.917l-1.163-2.268C131.178,98.402,129.593,102.373,126.421,102.373z M142.277,75.333h2.113v30.254
		h-2.113V75.333z M153.904,79.114h5.285v26.473h2.114V79.114h5.284v-3.782h-12.684 M186.461,75.333l-5.074,13.804l-5.18-13.804
		h-2.22l6.342,16.83v13.425h2.114V92.162l6.236-16.83 M102.005,75.333l-6.555,30.254h2.114l1.797-8.699l6.871-2.646l2.325,11.345
		h2.114l-6.448-30.254H102.005z M99.996,93.295l3.171-13.992h0.105l2.643,11.914L99.996,93.295z"/>
	<path d="M32.56,61.17l1.064,0.966v25.096c0,10.718-3.075,16.786-6.381,19.498h0.005l-8.111,8.473
		c-0.063,0.067-0.125,0.132-0.188,0.195l-0.092,0.099l0.002-0.006c-1.75,1.753-3.664,2.63-5.457,2.63
		c-5.322,0-11.708-7.722-11.708-23.166V71.788l2.129,1.931v21.235c0,15.444,6.386,19.305,9.579,19.305
		c1.979,0,5.183-1.481,7.334-6.281c-3.948-1.686-8.398-7.852-8.398-20.746v-22.78l-8.515,9.267l-2.129-1.931l10.644-11.583
		l1.064,0.965l1.064,0.966v25.096c0,13.397,4.806,16.625,7.469,17.247c0.647-2.534,1.045-5.667,1.045-9.524V69.858l2.129,1.93
		v23.166c0,3.576-0.342,6.738-0.935,9.486c2.689-0.705,7.321-4.057,7.321-17.208V64.549l-6.386,7.239l-2.129-1.93l8.515-9.653
		L32.56,61.17z"/>
</g>
</svg>
