<?xml version="1.0" encoding="utf-8"?>
<!-- Generator: Adobe Illustrator 16.0.0, SVG Export Plug-In . SVG Version: 6.00 Build 0)  -->
<!DOCTYPE svg PUBLIC "-//W3C//DTD SVG 1.1//EN" "http://www.w3.org/Graphics/SVG/1.1/DTD/svg11.dtd">
<svg version="1.1" id="Layer_1" xmlns="http://www.w3.org/2000/svg" xmlns:xlink="http://www.w3.org/1999/xlink" x="0px" y="0px"
	 width="60.375px" height="54px" viewBox="78.5 78.583 60.375 54" enable-background="new 78.5 78.583 60.375 54"
	 xml:space="preserve">
<g>
	
		<linearGradient id="SVGID_1_" gradientUnits="userSpaceOnUse" x1="7.71" y1="47.7559" x2="61.71" y2="47.7559" gradientTransform="matrix(1 0 0 -1 74.54 153.3398)">
		<stop  offset="0" style="stop-color:#CCE0F4"/>
		<stop  offset="0.0641" style="stop-color:#C3DCF2"/>
		<stop  offset="0.1706" style="stop-color:#A9D2EE"/>
		<stop  offset="0.3066" style="stop-color:#80C2E7"/>
		<stop  offset="0.4649" style="stop-color:#47ACDE"/>
		<stop  offset="0.5674" style="stop-color:#1E9CD7"/>
		<stop  offset="0.8652" style="stop-color:#0075BE"/>
		<stop  offset="0.9944" style="stop-color:#005B97"/>
	</linearGradient>
	<path fill="url(#SVGID_1_)" d="M82.25,116.832v-0.864c0-0.327,0.269-0.739,0.81-1.233c0.54-0.491,1.163-0.945,1.874-1.356
		c0.71-0.412,1.376-0.761,2.002-1.051c0.625-0.289,1.022-0.43,1.193-0.43c0.738,0,1.391,0.103,1.958,0.308
		c0.567,0.204,1.134,0.434,1.704,0.678c0.284,0.165,0.539,0.291,0.767,0.372c0.227,0.08,0.396,0.163,0.51,0.246
		c-0.226-1.316-0.369-2.55-0.424-3.701c-0.057-1.15-0.085-2.469-0.085-3.95c0-1.727,0.114-3.515,0.341-5.367
		c0.226-1.85,0.567-3.66,1.022-5.428c0.454-1.768,1.064-3.415,1.831-4.937c0.767-1.519,1.688-2.776,2.768-3.764
		c1.022-0.987,1.945-1.791,2.768-2.407c0.822-0.617,1.859-0.926,3.109-0.926c1.192,0,2.257,0.304,3.193,0.915
		c0.938,0.609,1.604,1.89,2.003,3.841v1.829c0,1.626-0.316,3.354-0.943,5.183c-0.628,1.829-1.443,3.536-2.441,5.122
		c-1.001,1.585-2.13,2.887-3.387,3.9c-1.257,1.021-2.486,1.524-3.688,1.524c-1.429,0-2.428-0.648-3-1.951v2.197
		c0,1.382,0.056,2.805,0.17,4.269c0.115,1.463,0.457,2.767,1.028,3.904h1.368c0.114,0,0.271-0.021,0.471-0.063
		c0.2-0.04,0.442-0.06,0.726-0.06h2.139c3.478-0.568,6.871-1.503,10.179-2.805c3.306-1.301,6.519-3.248,9.643-5.853l-0.086,0.121
		c0.173-0.163,0.384-0.365,0.639-0.611c0.256-0.242,0.497-0.446,0.725-0.605c-1.931-0.651-3.621-1.932-5.068-3.843
		c-1.448-1.909-2.172-4.409-2.172-7.5c0-0.975,0.113-1.809,0.34-2.499c0.225-0.69,0.48-1.403,0.764-2.135
		c1.016-2.602,2.401-4.434,4.155-5.499c1.752-1.064,3.703-1.668,5.852-1.817c1.303,0.732,2.136,1.182,2.502,1.344
		s0.665,0.325,0.891,0.488c2.146,2.039,3.661,4.729,4.539,8.07c0.876,3.341,1.313,6.724,1.313,10.147
		c0,5.216-0.836,9.678-2.508,13.383c-1.672,3.709-3.813,7.192-6.418,10.451c-1.417,1.798-3.16,3.263-5.229,4.403
		c-2.07,1.142-4.094,1.713-6.078,1.713c-0.114,0-0.285,0-0.512,0s-0.452,0-0.68,0h-1.274c-2.777,0-5.44-0.391-7.99-1.172
		c-2.549-0.783-4.903-2.426-7.057-4.925h0.171c0.055,0.08-0.043-0.023-0.298-0.311c-0.256-0.288-0.467-0.516-0.638-0.677
		c-0.396-0.164-0.708-0.535-0.935-1.112c-0.115-0.164-0.2-0.306-0.256-0.431c-0.057-0.124-0.114-0.226-0.17-0.313
		c-0.056-0.246-0.141-0.45-0.254-0.613c-0.228-0.325-0.652-0.493-1.276-0.493h-0.595c-0.909,0-1.39-0.04-1.446-0.123
		c-0.285,0-0.61-0.02-0.979-0.06c-0.37-0.042-0.724-0.146-1.064-0.312c-0.397-0.081-0.782-0.164-1.15-0.247
		c-0.37-0.08-0.524-0.122-0.468-0.122c-0.171,0-0.469-0.061-0.895-0.186c-0.426-0.119-0.895-0.266-1.405-0.429
		c-0.511-0.168-1.009-0.329-1.491-0.496c-0.482-0.164-0.838-0.287-1.064-0.372c-0.115-0.08-0.371-0.246-0.767-0.492
		C83.131,117.451,82.705,117.163,82.25,116.832z M97.497,97.29c0,1.057,0.184,1.708,0.554,1.951
		c0.369,0.244,0.864,0.367,1.491,0.367c0.737,0,1.476-0.202,2.214-0.61c0.738-0.406,1.405-0.934,2.002-1.585
		c0.596-0.651,1.077-1.443,1.448-2.378c0.368-0.933,0.553-1.971,0.553-3.109c0-0.893-0.185-1.585-0.553-2.073
		c-0.371-0.488-0.838-0.731-1.406-0.731c-0.795,0-1.563,0.225-2.3,0.67c-0.739,0.447-1.405,1.036-2.001,1.768
		c-0.596,0.731-1.08,1.605-1.448,2.622C97.681,95.198,97.497,96.232,97.497,97.29z M115.213,115.523
		c-2.158,0.898-4.386,1.781-6.686,2.638c-2.3,0.861-4.643,1.579-7.027,2.15l0.937,0.736c1.477,1.312,3.138,2.212,4.983,2.702
		c1.845,0.491,3.676,0.737,5.493,0.737h2.47c0.114,0,0.354-0.04,0.726-0.123c0.368-0.083,0.694-0.206,0.979-0.37
		c1.761-0.57,3.563-1.473,5.408-2.7c1.846-1.227,3.522-2.738,5.025-4.541c1.503-1.798,2.739-3.906,3.707-6.318
		c0.964-2.415,1.447-5.099,1.447-8.042c0-1.47-0.143-3.047-0.427-4.723c-0.283-1.677-0.711-3.274-1.277-4.789
		c-0.567-1.514-1.263-2.843-2.087-3.988c-0.822-1.145-1.773-1.882-2.853-2.211h-1.277c-1.251,0-2.299,0.388-3.152,1.166
		c-0.852,0.778-1.277,2.149-1.277,4.112c0,1.147,0.185,2.17,0.555,3.071c0.368,0.9,0.852,1.657,1.449,2.269
		c0.595,0.614,1.262,1.105,2.001,1.474c0.736,0.369,1.447,0.552,2.129,0.552c0.341,0,0.82-0.123,1.449-0.368v0.123
		c0.283-0.164,0.596-0.329,0.936-0.493c0.342-0.165,0.965-0.245,1.873-0.245c0,1.475-0.226,2.538-0.679,3.19
		c-0.117,0.164-0.229,0.349-0.342,0.553c-0.113,0.206-0.254,0.43-0.425,0.673c-0.341,0.491-0.511,0.818-0.511,0.985
		c-2.103,2.7-4.248,4.987-6.432,6.874C120.139,112.496,117.768,114.133,115.213,115.523z"/>
</g>
<rect x="170.283" y="85.778" fill="none" width="18.018" height="8.56"/>
</svg>
